/* XPM */
static char *result[] = {
/* columns rows colors chars-per-pixel */
"64 64 238 2 ",
"   c #509B66",
".  c #1F8954",
"X  c #20412A",
"o  c #203E28",
"O  c #1F804F",
"+  c #1F804E",
"@  c #201711",
"#  c #20120E",
"$  c #207347",
"%  c #1F7749",
"&  c #203C26",
"*  c #203523",
"=  c #283322",
"-  c #432D20",
";  c #442D1F",
":  c #483832",
">  c #555A70",
",  c #555C76",
"<  c #483935",
"1  c #46332A",
"2  c #54586D",
"3  c #47352D",
"4  c #2B3322",
"5  c #207749",
"6  c #206A42",
"7  c #201B13",
"8  c #2B1A13",
"9  c #4F3525",
"0  c #503625",
"q  c #55443E",
"w  c #667291",
"e  c #677598",
"r  c #564642",
"t  c #533E34",
"y  c #656F8D",
"u  c #544037",
"i  c #2F1E16",
"p  c #206A41",
"a  c #2F1D15",
"s  c #61432E",
"d  c #63452F",
"f  c #6C574B",
"g  c #8C95A8",
"h  c #8F9AB0",
"j  c #6E5A4F",
"k  c #684F3F",
"l  c #8B92A4",
"z  c #6A5243",
"x  c #352219",
"c  c #332017",
"v  c #735137",
"b  c #755338",
"n  c #836B58",
"m  c #B2B8BF",
"M  c #B6BEC8",
"N  c #856E5C",
"B  c #7E614A",
"V  c #B0B4BB",
"C  c #7F644F",
"Z  c #3B271C",
"A  c #322017",
"S  c #6E4E35",
"D  c #715036",
"F  c #7E6655",
"G  c #A9AFB9",
"H  c #ADB5C2",
"J  c #806959",
"K  c #785C48",
"L  c #A7ACB5",
"P  c #7A5F4C",
"I  c #3A261B",
"U  c #2B1B15",
"Y  c #50392C",
"T  c #523A2C",
"R  c #564744",
"E  c #667292",
"W  c #574947",
"Q  c #553D2F",
"!  c #573F2F",
"~  c #563E2F",
"^  c #54423A",
"/  c #65708E",
"(  c #55433D",
")  c #301F18",
"_  c #2F2528",
"`  c #61677F",
"'  c #636983",
"]  c #646C87",
"[  c #677497",
"{  c #646C88",
"}  c #9396A0",
"|  c #A3A5AA",
" . c #979AA2",
".. c #636B85",
"X. c #677496",
"o. c #636B86",
"O. c #352D33",
"+. c #30282C",
"@. c #657294",
"#. c #A2ACBC",
"$. c #A8B1BF",
"%. c #37313A",
"&. c #2F272B",
"*. c #626D8C",
"=. c #647090",
"-. c #647191",
";. c #657295",
":. c #657395",
">. c #9CA5B6",
",. c #AFB7C2",
"<. c #AEB6C0",
"1. c #ADB5BF",
"2. c #ADB5C0",
"3. c #A1AAB9",
"4. c #647091",
"5. c #362F37",
"6. c #271916",
"7. c #3D3230",
"8. c #3E3331",
"9. c #403A3F",
"0. c #47516C",
"q. c #485370",
"w. c #403B41",
"e. c #505567",
"r. c #566179",
"t. c #566077",
"y. c #495265",
"u. c #3F4656",
"i. c #464F61",
"p. c #52586B",
"a. c #3F3739",
"s. c #47506A",
"d. c #3F383B",
"f. c #2A1C19",
"g. c #251611",
"h. c #342319",
"j. c #372C2A",
"k. c #404962",
"l. c #404B66",
"z. c #372D2C",
"x. c #3D4153",
"c. c #3F4A65",
"v. c #30394F",
"b. c #232A3C",
"n. c #2C354A",
"m. c #3E4458",
"M. c #362823",
"N. c #3F475F",
"B. c #362925",
"V. c #271812",
"C. c #5F8878",
"Z. c #485C50",
"A. c #241915",
"S. c #3D3232",
"D. c #596482",
"F. c #5B6889",
"G. c #4C3E3B",
"H. c #483122",
"J. c #565A6F",
"K. c #596686",
"L. c #3C455E",
"P. c #353E54",
"I. c #585E75",
"U. c #4A382F",
"Y. c #57627E",
"T. c #3A2E2B",
"R. c #475C50",
"E. c #7C7D82",
"W. c #5A5557",
"Q. c #261915",
"!. c #3F3535",
"~. c #61657B",
"^. c #414B65",
"/. c #394259",
"(. c #636A83",
"). c #626E8C",
"_. c #3C302D",
"`. c #667497",
"'. c #556280",
"]. c #48536D",
"[. c #515D7B",
"{. c #5A5156",
"}. c #5D5A66",
"|. c #5B535A",
" X c #676467",
".X c #463F3E",
"XX c #433B3A",
"oX c #3E3432",
"OX c #2D1E16",
"+X c #2D1D15",
"@X c #393032",
"#X c #362B2A",
"$X c #3C312E",
"%X c #666467",
"&X c #686669",
"*X c #231612",
"=X c #636F90",
"-X c #616C8B",
";X c #2B2224",
":X c #605C5E",
">X c #65867A",
",X c #6E827D",
"<X c #7B7E82",
"1X c #6D6C6F",
"2X c #39302E",
"3X c #372D2B",
"4X c #433D42",
"5X c #69738C",
"6X c #6D7793",
"7X c #5F5452",
"8X c #5B483D",
"9X c #5D4E47",
"0X c #687089",
"qX c #3F393B",
"wX c #42926D",
"eX c #767F80",
"rX c #3D946B",
"tX c #69847B",
"yX c #71817E",
"uX c #7B7D82",
"iX c #70817E",
"pX c #229D61",
"aX c #279B63",
"sX c #289B63",
"dX c #3A956A",
"fX c #777F80",
"gX c #74807F",
"hX c #359668",
"jX c #349768",
"kX c #778080",
"lX c #2E9966",
"zX c #309866",
"xX c #66857A",
"cX c #2B9A65",
"vX c #239D61",
"bX c #309966",
"nX c #319867",
"mX c #2F9966",
/* pixels */
"                                                                                                                                ",
"              . X o o o o o o o o o o o o o o o o o o o o o o o o o o o o o o o o o o o o o o o o o o o o o o o o O             ",
"              + @ # # # # # # # # # # # # # # # # # # # # # # # # # # # # # # # # # # # # # # # # # # # # # # # # $             ",
"              + @ # # # # # # # # # # # # # # # # # # # # # # # # # # # # # # # # # # # # # # # # # # # # # # # # $             ",
"              + @ # # # # # # # # # # # # # # # # # # # # # # # # # # # # # # # # # # # # # # # # # # # # # # # # $             ",
"      % & * * = - ; ; : > , , , , , , , < ; ; ; ; ; ; ; ; ; ; ; ; ; ; ; ; ; ; ; ; ; ; ; 1 , , , , , , , 2 3 ; ; ; 4 * * * 5     ",
"      6 7 # # 8 9 0 0 q w e e e e e e e r 0 0 0 0 0 0 0 0 0 0 0 0 0 0 0 0 0 0 0 0 0 0 0 t e e e e e e e y u 0 0 0 i # # # p     ",
"      6 7 # # 8 9 0 0 q w e e e e e e e r 0 0 0 0 0 0 0 0 0 0 0 0 0 0 0 0 0 0 0 0 0 0 0 t e e e e e e e y u 0 0 0 i # # # p     ",
"      6 7 # # 8 9 0 0 q w e e e e e e e r 0 0 0 0 0 0 0 0 0 0 0 0 0 0 0 0 0 0 0 0 0 0 0 t e e e e e e e y u 0 0 0 i # # # p     ",
"      6 7 # # a s d d f g h h h h h h h j d d d d d d d d d d d d d d d d d d d d d d d k h h h h h h h l z d d d x # # # p     ",
"      6 7 # # c v b b n m M M M M M M M N b b b b b b b b b b b b b b b b b b b b b b b B M M M M M M M V C b b b Z # # # p     ",
"      6 7 # # c v b b n m M M M M M M M N b b b b b b b b b b b b b b b b b b b b b b b B M M M M M M M V C b b b Z # # # p     ",
"      6 7 # # c v b b n m M M M M M M M N b b b b b b b b b b b b b b b b b b b b b b b B M M M M M M M V C b b b Z # # # p     ",
"      6 7 # # c v b b n m M M M M M M M N b b b b b b b b b b b b b b b b b b b b b b b B M M M M M M M V C b b b Z # # # p     ",
"      6 7 # # c v b b n m M M M M M M M N b b b b b b b b b b b b b b b b b b b b b b b B M M M M M M M V C b b b Z # # # p     ",
"      6 7 # # c v b b n m M M M M M M M N b b b b b b b b b b b b b b b b b b b b b b b B M M M M M M M V C b b b Z # # # p     ",
"      6 7 # # c v b b n m M M M M M M M N b b b b b b b b b b b b b b b b b b b b b b b B M M M M M M M V C b b b Z # # # p     ",
"      6 7 # # c v b b n m M M M M M M M N b b b b b b b b b b b b b b b b b b b b b b b B M M M M M M M V C b b b Z # # # p     ",
"      6 7 # # c v b b n m M M M M M M M N b b b b b b b b b b b b b b b b b b b b b b b B M M M M M M M V C b b b Z # # # p     ",
"      6 7 # # c v b b n m M M M M M M M N b b b b b b b b b b b b b b b b b b b b b b b B M M M M M M M V C b b b Z # # # p     ",
"      6 7 # # c v b b n m M M M M M M M N b b b b b b b b b b b b b b b b b b b b b b b B M M M M M M M V C b b b Z # # # p     ",
"      6 7 # # c v b b n m M M M M M M M N b b b b b b b b b b b b b b b b b b b b b b b B M M M M M M M V C b b b Z # # # p     ",
"      6 7 # # c v b b n m M M M M M M M N b b b b b b b b b b b b b b b b b b b b b b b B M M M M M M M V C b b b Z # # # p     ",
"      6 7 # # c v b b n m M M M M M M M N b b b b b b b b b b b b b b b b b b b b b b b B M M M M M M M V C b b b Z # # # p     ",
"      6 7 # # c v b b n m M M M M M M M N b b b b b b b b b b b b b b b b b b b b b b b B M M M M M M M V C b b b Z # # # p     ",
"      6 7 # # A S D D F G H H H H H H H J D D D D D D D D D D D D D D D D D D D D D D D K H H H H H H H L P D D D I # # # p     ",
"      6 7 # # 8 9 0 0 q w e e e e e e e r 0 0 0 0 0 0 0 0 0 0 0 0 0 0 0 0 0 0 0 0 0 0 0 t e e e e e e e y u 0 0 0 i # # # p     ",
"      6 7 # # 8 9 0 0 q w e e e e e e e r 0 0 0 0 0 0 0 0 0 0 0 0 0 0 0 0 0 0 0 0 0 0 0 t e e e e e e e y u 0 0 0 i # # # p     ",
"      6 7 # # 8 9 0 0 q w e e e e e e e r 0 0 0 0 0 0 0 0 0 0 0 0 0 0 0 0 0 0 0 0 0 0 0 t e e e e e e e y u 0 0 0 i # # # p     ",
"      6 7 # # U Y T T R E e e e e e e e W T T T Q ! ! ! ! ! ! ! ! ! ! ! ! ! ! ! ~ T T T ^ e e e e e e e / ( T T T ) # # # p     ",
"      6 7 # # _ ` ' ' ] [ e e e e e e e { ' ' ' } | | | | | | | | | | | | | | |  .' ' ' ..e e e e e e e X.o.' ' ' O.# # # p     ",
"      6 7 # # +.@.e e e e e e e e e e e e e e e #.M M M M M M M M M M M M M M M $.e e e e e e e e e e e e e e e e %.# # # p     ",
"      6 7 # # +.@.e e e e e e e e e e e e e e e #.M M M M M M M M M M M M M M M $.e e e e e e e e e e e e e e e e %.# # # p     ",
"      6 7 # # &.*.=.=.-.;.:.:.:.:.:.:.:.-.=.=.=.>.,.,.,.<.1.1.1.1.1.1.1.2.,.,.,.3.=.=.=.4.:.:.:.:.:.:.:.;.4.=.=.=.5.# # # p     ",
"      6 7 # # 6.7.8.8.9.0.q.q.q.q.q.q.q.w.8.8.8.e.r.r.t.y.u.u.u.u.u.u.u.i.r.r.r.p.8.8.8.a.q.q.q.q.q.q.q.s.d.8.8.8.f.# # # p     ",
"      6 7 # # g.h.h.h.j.k.l.l.l.l.l.l.l.z.h.h.h.x.l.l.c.v.b.b.b.b.b.b.b.n.l.l.l.m.h.h.h.M.l.l.l.l.l.l.l.N.B.h.h.h.V.# # # p     ",
"      6 7 # # g.h.h.h.j.k.l.l.l.l.l.l.l.z.h.h.h.x.l.l.c.v.b.b.b.b.b.b.b.n.l.l.l.m.h.h.h.M.l.l.l.l.l.l.l.N.B.h.h.h.V.# # # p     ",
"      6 7 # # g.h.h.h.j.k.l.l.l.l.l.l.l.z.h.h.h.x.l.l.c.v.b.b.b.b.b.b.b.n.l.l.l.m.h.h.h.M.l.l.l.l.l.l.l.N.B.h.h.h.V.# # # p     ",
"C.C.C.Z.A.# # g.h.h.h.S.D.F.F.F.F.F.F.F.G.H.H.H.J.F.F.K.L.b.b.b.b.b.b.b.P.F.F.F.I.H.H.H.U.F.F.F.F.F.F.F.Y.T.h.h.h.V.# # # R.C.C.",
"E.E.E.W.Q.# # g.h.h.h.!.4.e e e e e e e r 0 0 0 ~.e e :.^.b.b.b.b.b.b.b./.e e e (.0 0 0 t e e e e e e e )._.h.h.h.V.# # # W.E.E.",
"E.E.E.W.Q.# # g.h.h.h.!.4.e e e e e e e r 0 0 0 ~.e e :.^.b.b.b.b.b.b.b./.e e e (.0 0 0 t e e e e e e e )._.h.h.h.V.# # # W.E.E.",
"E.E.E.W.Q.# # g.h.h.h.!.4.e e e e e e e r 0 0 0 ~.e e :.^.b.b.b.b.b.b.b./.e e e (.0 0 0 t e e e e e e e )._.h.h.h.V.# # # W.E.E.",
"E.E.E.W.Q.# # g.h.h.h.!.4.e e e e e e e r 0 0 0 ~.e e `.'.].].].].].].].[.e e e (.0 0 0 t e e e e e e e )._.h.h.h.V.# # # W.E.E.",
"E.E.E.W.Q.# # g.h.h.h.!.4.e e e e e e e r 0 0 0 ~.e e e e e e e e e e e e e e e (.0 0 0 t e e e e e e e )._.h.h.h.V.# # # W.E.E.",
"E.E.E.W.Q.# # g.h.h.h.!.4.e e e e e e e r 0 0 0 ~.e e e e e e e e e e e e e e e (.0 0 0 t e e e e e e e )._.h.h.h.V.# # # W.E.E.",
"E.E.E.W.Q.# # g.h.h.h.!.4.e e e e e e e r 0 0 0 ~.e e e e e e e e e e e e e e e (.0 0 0 t e e e e e e e )._.h.h.h.V.# # # W.E.E.",
"E.E.E.W.Q.# # g.h.h.h.!.4.e e e e e e e r 0 0 0 {.}.}.}.}.}.}.}.}.}.}.}.}.}.}.}.|.0 0 0 t e e e e e e e )._.h.h.h.V.# # # W.E.E.",
"E.E.E.W.Q.# # g.h.h.h.!.4.e e e e e e e r 0 0 0 0 0 0 0 0 0 0 0 0 0 0 0 0 0 0 0 0 0 0 0 t e e e e e e e )._.h.h.h.V.# # # W.E.E.",
"E.E.E.W.Q.# # g.h.h.h.!.4.e e e e e e e r 0 0 0 0 0 0 0 0 0 0 0 0 0 0 0 0 0 0 0 0 0 0 0 t e e e e e e e )._.h.h.h.V.# # # W.E.E.",
"E.E.E.W.Q.# # g.h.h.h.!.4.e e e e e e e r 0 0 0 0 0 0 0 0 0 0 0 0 0 0 0 0 0 0 0 0 0 0 0 t e e e e e e e )._.h.h.h.V.# # # W.E.E.",
"E.E.E. X.XXXXXoXOX+X+X@X=.e e e e e e e r 0 0 0 0 0 0 0 0 0 0 0 0 0 0 0 0 0 0 0 0 0 0 0 t e e e e e e e *.#X+X+X+X$XXXXXXX%XE.E.",
"E.E.E.E.E.E.E.&X*X# # +.=Xe e e e e e e r 0 0 0 0 0 0 0 0 0 0 0 0 0 0 0 0 0 0 0 0 0 0 0 t e e e e e e e -X;X# # # :XE.E.E.E.E.E.",
"E.E.E.E.E.E.E.&X*X# # +.=Xe e e e e e e r 0 0 0 0 0 0 0 0 0 0 0 0 0 0 0 0 0 0 0 0 0 0 0 t e e e e e e e -X;X# # # :XE.E.E.E.E.E.",
"E.E.E.E.E.E.E.&X*X# # +.=Xe e e e e e e r 0 0 0 0 0 0 0 0 0 0 0 0 0 0 0 0 0 0 0 0 0 0 0 t e e e e e e e -X;X# # # :XE.E.E.E.E.E.",
">X>X>X,X<XE.E.1X2X3X3X4X5X6X6X6X6X6X6X6X7X8X8X8X8X8X8X8X8X8X8X8X8X8X8X8X8X8X8X8X8X8X8X8X9X6X6X6X6X6X6X6X0XqX3X3X3X XE.E.E.,X>X>X",
"      wXeXE.E.E.E.E.E.E.E.E.E.E.E.E.E.E.E.E.E.E.E.E.E.E.E.E.E.E.E.E.E.E.E.E.E.E.E.E.E.E.E.E.E.E.E.E.E.E.E.E.E.E.E.E.E.E.E.wX    ",
"      wXeXE.E.E.E.E.E.E.E.E.E.E.E.E.E.E.E.E.E.E.E.E.E.E.E.E.E.E.E.E.E.E.E.E.E.E.E.E.E.E.E.E.E.E.E.E.E.E.E.E.E.E.E.E.E.E.E.wX    ",
"      wXeXE.E.E.E.E.E.E.E.E.E.E.E.E.E.E.E.E.E.E.E.E.E.E.E.E.E.E.E.E.E.E.E.E.E.E.E.E.E.E.E.E.E.E.E.E.E.E.E.E.E.E.E.E.E.E.E.wX    ",
"      rXtX,X,X,X,X,X,XyXuXE.E.E.E.E.E.E.E.E.E.E.E.E.E.E.E.E.E.E.E.E.E.E.E.E.E.E.E.E.E.E.E.E.E.E.E.E.E.E.<XiX,X,X,X,X,X,X,XrX    ",
"      pXaXsXsXsXsXsXsXdXfXE.E.E.E.E.E.E.E.E.E.E.E.E.E.E.E.E.E.E.E.E.E.E.E.E.E.E.E.E.E.E.E.E.E.E.E.E.E.E.gXhXsXsXsXsXsXsXsXpX    ",
"                      jXkXE.E.E.E.E.E.E.E.E.E.E.E.E.E.E.E.E.E.E.E.E.E.E.E.E.E.E.E.E.E.E.E.E.E.E.E.E.E.E.gXlX                    ",
"                      jXkXE.E.E.E.E.E.E.E.E.E.E.E.E.E.E.E.E.E.E.E.E.E.E.E.E.E.E.E.E.E.E.E.E.E.E.E.E.E.E.gXlX                    ",
"                      zXtX,X,X,X,X,X,X,X,X,X,X,X,X,X,X,X,X,X,X,X,X,X,X,X,X,X,X,X,X,X,X,X,X,X,X,X,X,X,X,XxXcX                    ",
"                      vXbXnXnXnXnXnXnXnXnXnXnXnXnXnXnXnXnXnXnXnXnXnXnXnXnXnXnXnXnXnXnXnXnXnXnXnXnXnXnXnXmXpX                    "
};
