/* XPM */
static char *result[] = {
/* columns rows colors chars-per-pixel */
"29 32 86 1 ",
"  c #DF7836",
". c #E07937",
"X c #E07A37",
"o c #E07B37",
"O c #E07C37",
"+ c #E07D37",
"@ c #E17D38",
"# c #E17E38",
"$ c #E18139",
"% c #E28239",
"& c #E28339",
"* c #E3863A",
"= c #E3883A",
"- c #E38A3B",
"; c #E48B3B",
": c #E48C3B",
"> c #E48E3C",
", c #E58F3C",
"< c #E5913C",
"1 c #E5933D",
"2 c #E7993E",
"3 c #EAA642",
"4 c #EAA742",
"5 c #EAA842",
"6 c #EBAA42",
"7 c #EBAC43",
"8 c #EBAD43",
"9 c #ECAE43",
"0 c #ECAF44",
"q c #ECB044",
"w c #ECB144",
"e c #EDB244",
"r c #EDB445",
"t c #EDB545",
"y c #EEBA46",
"u c #EFBA47",
"i c #EFBB47",
"p c #EFBE47",
"a c #F0BF48",
"s c #F0C048",
"d c #F0C148",
"f c #F0C248",
"g c #F0C348",
"h c #F1C349",
"j c #F1C449",
"k c #F1C549",
"l c #F1C649",
"z c #F1C749",
"x c #F1C74A",
"c c #F2C74A",
"v c #F2CA4A",
"b c #F2CA4B",
"n c #F2CB4B",
"m c #F3CC4B",
"M c #F3CE4C",
"N c #F3CF4C",
"B c #F4CF4C",
"V c #F4D04C",
"C c #F4D14D",
"Z c #F4D24D",
"A c #F4D34D",
"S c #F5D34D",
"D c #F5D44D",
"F c #F5D44E",
"G c #F5D64E",
"H c #F6D74E",
"J c #F6DA4F",
"K c #F7DC50",
"L c #F8E252",
"P c #F8E352",
"I c #F9E452",
"U c #F9E552",
"Y c #F9E653",
"T c #F9E753",
"R c #FAE853",
"E c #FAEA54",
"W c #FBEB54",
"Q c #FBEC54",
"! c #FBEC55",
"~ c #FBEF55",
"^ c #FCEF55",
"/ c #FCF056",
"( c #FCF156",
") c #FCF256",
"_ c #FCF356",
"` c None",
/* pixels */
"`````````````````````````````",
"`````````````````````````````",
"`````````````````````````````",
"`````````````````````````````",
"`````````````````````````````",
"`````````````````````````````",
"`````````````````````````````",
"``````(((((((((((((((````````",
"``````((/~~~~~~~~~~~!````````",
"````((()YNMMMMMMMMMBu@o``````",
"````((()Pkjjjjjjjjjl0+o``````",
"````((LKFklGJJJHckklq+o``````",
"````(/CjkjcR_))Wvkklq+o``````",
"````(/ZjxbmUQWQIsidlq+o``````",
"````(/ZjZQECvvns-&6cq+o``````",
"````(/ZjS(~Mjkky$X4cq+o``````",
"````(/ZjS(~Mjkly%X4cq+o``````",
"````(/ZjD(^Bklzi$.3cq+o``````",
"````(/ZjVTIarrt9,;9cq+o``````",
"````(/Zjlch>@##=ifjlq+o``````",
"````(/Zjkkd;oOo*plkk0+o``````",
"````(/Zjkkje787qgk51:Oo``````",
"````(/Aklllxcccclz2 Xoo``````",
"````(^sqwwwwwwwwww<Xooo``````",
"``````#+++++++++++Ooo````````",
"``````ooooooooooooooo````````",
"`````````````````````````````",
"`````````````````````````````",
"`````````````````````````````",
"`````````````````````````````",
"`````````````````````````````",
"`````````````````````````````"
};
