/* XPM */
static char *_0457e2ac66644aaf65591ee0c32531fVxcc6M8W10vTkucM[] = {
/* columns rows colors chars-per-pixel */
"32 35 134 2 ",
"   c #509B66",
".  c #62A464",
"X  c #8DBA60",
"o  c #83B561",
"O  c #FCF156",
"+  c #FCF056",
"@  c #83B461",
"#  c #60A365",
"$  c #70AB63",
"%  c #9AC05F",
"&  c #FBEE55",
"*  c #FAE953",
"=  c #F9E453",
"-  c #95AC5A",
";  c #6B955D",
":  c #5D9862",
">  c #A3C55E",
",  c #F9E553",
"<  c #F3D04C",
"1  c #F3CD4C",
"2  c #F4CE4C",
"3  c #F0BD48",
"4  c #E58F3C",
"5  c #E07C37",
"6  c #968C4F",
"7  c #FBF055",
"8  c #F8E252",
"9  c #F2C74A",
"0  c #F1C449",
"q  c #F1C649",
"w  c #EDB445",
"e  c #E48C3B",
"r  c #FBED55",
"t  c #F7DD50",
"y  c #F5D54E",
"u  c #F4D14C",
"i  c #F5D74E",
"p  c #F6D84F",
"a  c #F6D74E",
"s  c #F5D24D",
"d  c #F2C64A",
"f  c #F1C549",
"g  c #FAE854",
"h  c #F4D14D",
"j  c #F2C84A",
"k  c #FAEC54",
"l  c #FBEF55",
"z  c #FBEC54",
"x  c #F8E051",
"c  c #F2C94A",
"v  c #FAE753",
"b  c #F3CF4C",
"n  c #F1C74A",
"m  c #F3CA4B",
"M  c #F8DF50",
"N  c #FBEB54",
"B  c #FBED54",
"V  c #F7DC50",
"C  c #F0C248",
"Z  c #F0BE48",
"A  c #F8DF51",
"S  c #F6DA4F",
"D  c #F5D64E",
"F  c #F5D54D",
"G  c #F4D24D",
"H  c #F0BF48",
"J  c #E79B3F",
"K  c #E7983E",
"L  c #EDB144",
"P  c #EDB545",
"I  c #F5D34D",
"U  c #F5D74F",
"Y  c #F2CA4A",
"T  c #F1C749",
"R  c #F0C449",
"E  c #EBAE43",
"W  c #E28439",
"Q  c #E28139",
"!  c #EAA842",
"~  c #F0C148",
"^  c #EBAB43",
"/  c #E18039",
"(  c #E17E38",
")  c #EAA642",
"_  c #F5D44D",
"`  c #FCEF55",
"'  c #E17D38",
"]  c #F1C349",
"[  c #F0C048",
"{  c #EFBD47",
"}  c #EBAA43",
"|  c #E2843A",
" . c #E28239",
".. c #EBA842",
"X. c #F3CE4B",
"o. c #F7DE50",
"O. c #EAA742",
"+. c #EAA741",
"@. c #E9A240",
"#. c #E7993F",
"$. c #EDB344",
"%. c #E79C3F",
"&. c #E28339",
"*. c #E6953D",
"=. c #F0C348",
"-. c #E89B3F",
";. c #E17F38",
":. c #E7973E",
">. c #EFC047",
",. c #ECB144",
"<. c #E38B3B",
"1. c #EEB645",
"2. c #ECAE43",
"3. c #EBAC43",
"4. c #EBAD43",
"5. c #EAA942",
"6. c #E6963E",
"7. c #E48E3C",
"8. c #E18138",
"9. c #E07B37",
"0. c #E07E38",
"q. c #F9E252",
"w. c #ECB244",
"e. c #E5933C",
"r. c #67A664",
"t. c #7FB262",
"y. c #9DA856",
"u. c #E38A3A",
"i. c #E18238",
"p. c #968B4F",
"a. c #779259",
"s. c #639760",
"d. c #7B9258",
"f. c #908D51",
/* pixels */
"                                                                ",
"                                                                ",
"                                                                ",
"                                                                ",
"                                                                ",
"                                                                ",
"                                                                ",
"              . X X X X X X X X X X X X X X X X .               ",
"              o O O O + + + + + + + + + + + + + @               ",
"          # $ % O O & * * * * * * * * * * * * = - ; :           ",
"          > O O O O , < 1 1 1 1 1 1 1 1 1 1 2 3 4 5 6           ",
"          > O O O 7 8 9 0 0 0 0 0 0 0 0 0 0 q w e 5 6           ",
"          > O r 8 t y q q u i p p a s d f f q w e 5 6           ",
"          > O g h j 9 0 d t k l & z x c f f q w e 5 6           ",
"          > O v b 0 n j m M N B B N V C Z C q w e 5 6           ",
"          > O v b f b A x S D F y G H J K L 0 P e 5 6           ",
"          > O v b q I r r U Y T n R E W Q ! 0 P e 5 6           ",
"          > O v b q I l l i j f f ~ ^ / ( ) 0 P e 5 6           ",
"          > O v b q _ l ` a j f q C ^ / ' ) ] P e 5 6           ",
"          > O v b q I z z I ] [ ~ { } |  ...0 P e 5 6           ",
"          > O v b f X.o.t Z ^ O.O.+.@.#.J $.f P e 5 6           ",
"          > O v b 0 q 9 ] %.&.' ( Q *.{ =.0 q w e 5 6           ",
"          > O v b 0 f f C -.W ;.;. .:.>.q ] C ,.<.5 6           ",
"          > O v b 0 f f 0 1.2.3.3.4.P =.=.5.6.7.8.9.6           ",
"          > O v < f q q q f f 0 0 0 f q =.J 0.5 9.9.6           ",
"          > + q.[ w P P P P P P P P P P w.e.5 9.9.9.6           ",
"          r.t.y.4 <.<.<.<.<.<.<.<.<.<.<.u.i.9.9.p.a.s.          ",
"              d.5 5 5 5 5 5 5 5 5 5 5 5 5 9.9.9.d.              ",
"              s.f.f.f.f.f.f.f.f.f.f.f.f.f.f.f.f.s.              ",
"                                                                ",
"                                                                ",
"                                                                ",
"                                                                ",
"                                                                ",
"                                                                "
};
