/* XPM */
static char *result[] = {
/* columns rows colors chars-per-pixel */
"64 64 115 2 ",
"   c #567F8B",
".  c #5E7B91",
"X  c #5A758A",
"o  c #2C3530",
"O  c #212519",
"+  c #384546",
"@  c #677598",
"#  c #636F90",
"$  c #2E2528",
"%  c #20120E",
"&  c #3B3742",
"*  c #5F6A88",
"=  c #312729",
"-  c #261611",
";  c #3D3840",
":  c #5B412F",
">  c #654730",
",  c #503A2D",
"<  c #755338",
"1  c #553B29",
"2  c #251611",
"3  c #63462F",
"4  c #735137",
"5  c #715036",
"6  c #725137",
"7  c #543A28",
"8  c #231510",
"9  c #4D3424",
"0  c #573C29",
"q  c #432E20",
"w  c #402C1F",
"e  c #493223",
"r  c #422C1F",
"t  c #231410",
"y  c #472F21",
"u  c #503625",
"i  c #38261B",
"p  c #342319",
"a  c #3F2B1E",
"s  c #3E291D",
"d  c #39271B",
"f  c #39261B",
"g  c #352419",
"h  c #37251A",
"j  c #412D1F",
"k  c #62442F",
"l  c #3C291D",
"z  c #36241A",
"x  c #483122",
"c  c #4A3222",
"v  c #4B3323",
"b  c #4B3424",
"n  c #523927",
"m  c #3D291D",
"M  c #4E3524",
"N  c #462F21",
"B  c #4D3525",
"V  c #4F3524",
"C  c #4C3323",
"Z  c #3B281C",
"A  c #3E2A1D",
"S  c #553B28",
"D  c #6D5336",
"F  c #6C4F32",
"G  c #6A492C",
"H  c #6A492B",
"J  c #563B24",
"K  c #6B5135",
"L  c #E0C577",
"P  c #DAB263",
"I  c #D19646",
"U  c #D19342",
"Y  c #966933",
"T  c #E9CE7C",
"R  c #E3BB67",
"E  c #DA9D48",
"W  c #D99944",
"Q  c #9B6D34",
"!  c #6D5134",
"~  c #E7C875",
"^  c #E2B663",
"/  c #DA9C47",
"(  c #64452A",
")  c #BA833C",
"_  c #885F2F",
"`  c #4D3423",
"'  c #3F2B1C",
"]  c #3B281B",
"[  c #4F3625",
"{  c #4C3423",
"}  c #463021",
"|  c #483121",
" . c #241812",
".. c #4B5E3D",
"X. c #557047",
"o. c #325536",
"O. c #2D5234",
"+. c #2E5234",
"@. c #3B5B3A",
"#. c #3E5D3C",
"$. c #3C5C3B",
"%. c #305435",
"&. c #3D5C3B",
"*. c #375939",
"=. c #3C5D3B",
"-. c #414D32",
";. c #201C14",
":. c #208551",
">. c #509B66",
",. c #206B42",
"<. c #205434",
"1. c #20482E",
"2. c #204E31",
"3. c #1F8E57",
"4. c #207F4E",
/* pixels */
"  . . X o O O O O O O O O O O O O O O O O O O O O O O O O O O O O O O O O O O O O O O O O O O O O O O O O O O O O O O + . . . . ",
". @ @ # $ % % % % % % % % % % % % % % % % % % % % % % % % % % % % % % % % % % % % % % % % % % % % % % % % % % % % % % & @ @ @ @ ",
". @ @ # $ % % % % % % % % % % % % % % % % % % % % % % % % % % % % % % % % % % % % % % % % % % % % % % % % % % % % % % & @ @ @ @ ",
"X # # * = - - - - - - - - - - - - - - - - - - - - - - - - - - - - - - - - - - - - - - - - - - - - - - - - - - - - - - ; # # # # ",
"o $ $ = : > > > > > > > > > > > > > > > > > > > > > > > > > > > > > > > > > > > > > > > > > > > > > > > > > > > > > > , $ $ $ $ ",
"O % % - > < < < < < < < < < < < < < < < < < < < < < < < < < < < < < < < < < < < < < < < < < < < < < < < < < < < < < < 1 % % % % ",
"O % % - > < < < < < < < < < < < < < < < < < < < < < < < < < < < < < < < < < < < < < < < < < < < < < < < < < < < < < < 1 % % % % ",
"O % % - > < < < < < < < < < < < < < < < < < < < < < < < < < < < < < < < < < < < < < < < < < < < < < < < < < < < < < < 1 % % % % ",
"O % % - > < < < < < < < < < < < < < < < < < < < < < < < < < < < < < < < < < < < < < < < < < < < < < < < < < < < < < < 1 % % % % ",
"O % % - > < < < < < < < < < < < < < < < < < < < < < < < < < < < < < < < < < < < < < < < < < < < < < < < < < < < < < < 1 % % % % ",
"O % % - > < < < < < < < < < < < < < < < < < < < < < < < < < < < < < < < < < < < < < < < < < < < < < < < < < < < < < < 1 % % % % ",
"O % % 2 3 4 4 4 5 5 5 5 5 5 5 5 5 5 5 5 5 5 5 5 5 5 5 5 5 5 5 5 5 5 5 5 5 5 5 5 5 5 5 5 5 5 5 5 5 5 5 5 5 5 5 6 4 4 4 7 % % % % ",
"O % % 8 9 0 0 0 q w w w w w w w w w w w w w w w w w w w w w w w w w w w w w w w w w w w w w w w w w w w w w w e 0 0 0 r % % % % ",
"O % % t y u u u i p p p p p p p p p p p p p p p p p p p p p p p p p p p p p p p p p p p p p p p p p p p p p p a u u u s % % % % ",
"O % % t y u u u i p p p p p p p p p p p p p p p p p p p p p p p p p p p p p p p p p p p p p p p p p p p p p p a u u u s % % % % ",
"O % % 8 9 0 0 0 i p p p i d d d d d d f p p p g d d d d d d d d d d d d d d d i p p p g d d d d d d d h p p p j 0 0 0 r % % % % ",
"O % % 2 k 5 5 5 l p p z x 9 9 9 9 9 9 c p p p f v 9 9 9 9 9 9 9 9 9 9 9 9 9 9 x z p p f 9 9 9 9 9 9 9 q p p p b 5 5 5 n % % % % ",
"O % % - > < < < m p p z v u u u u u u 9 p p p d M u u u u u u u u u u u u u u v z p p d u u u u u u u N p p p B < < < 1 % % % % ",
"O % % - > < < < m p p z v u u u u u u 9 p p p d M u u u u u u u u u u u u u u v z p p d u u u u u u u N p p p B < < < 1 % % % % ",
"O % % - > < < < m p p z v u u u u u u 9 i i i l V u u u u u u u u u u u u u u v z p p d u u u u u u u N p p p B < < < 1 % % % % ",
"O % % - > < < < m p p z v u u u u u u u u u u u u u u u u u u u u u u u u u u v z p p d u u u u u u u N p p p B < < < 1 % % % % ",
"O % % - > < < < m p p z v u u u u u u u u u u u u u u u u u u u u u u u u u u v z p p d u u u u u u u N p p p B < < < 1 % % % % ",
"O % % - > < < < m p p z v u u u u u u u u u u u u u u u u u u u u u u u u u u v z p p d u u u u u u u N p p p B < < < 1 % % % % ",
"O % % - > < < < m p p z v u u u u u u u u u u u u u u u u u u u u u u u u u u C Z d d A u u u u u u u N p p p B < < < 1 % % % % ",
"O % % - > < < < m p p z v u u u u u u u u u u u u u u u u u u u u u u u u u u u M M M V u u u u u u u N p p p B < < < 1 % % % % ",
"O % % - > < < < m p p z v u u u u u u u u u u u u u u u u u u u u u u u u u u u u u u u u u u u u u u N p p p B < < < 1 % % % % ",
"O % % - > < < < m p p z v u u u u u u u u u u u u u u u u u u u u u u u u u u u u u u u u u u u u u u N p p p B < < < 1 % % % % ",
"O % % - > < < < m p p z v u u u u u u u u u u u u u u u u u u u u u u u u u u u u u u u u u u u u u u N p p p B < < < 1 % % % % ",
"O % % - > < < < m p p z v u u u u u u u u u u u u u u u u u u u u u u u u u u u u u u u u u u u u u u N p p p B < < < 1 % % % % ",
"O % % - > < < < m p p z v u u u u u u u u u u u u u u u u u u u u u u u u u u u u u u u u u u u u u u N p p p B < < < 1 % % % % ",
"O % % - > < < < m p p z v u u u u u u u u u u u u u u u u u u u u u u u u u u u u u u u u u u u u u u N p p p B < < < 1 % % % % ",
"O % % - > < < < m p p z v u u u u u u u u u u u u u u u u u u u u u u u u u u u u u u S D D D F G H H J p p p B < < < 1 % % % % ",
"O % % - > < < < m p p z v u u u u u u u u u u u u u u u u u u u u u u u u u u u u u u K L L L P I U U Y p p p B < < < 1 % % % % ",
"O % % - > < < < m p p z v u u u u u u u u u u u u u u u u u u u u u u u u u u u u u u D T T T R E W W Q p p p B < < < 1 % % % % ",
"O % % - > < < < m p p z v u u u u u u u u u u u u u u u u u u u u u u u u u u u u u u D T T T R E W W Q p p p B < < < 1 % % % % ",
"O % % - > < < < m p p z v u u u u u u u u u u u u u u u u u u u u u u u u u u u u u u ! ~ ~ ~ ^ / W W Q p p p B < < < 1 % % % % ",
"O % % - > < < < m p p z v u u u u u u u u u u u u u u u u u u u u u u u u u u u u u u H W W W W W W W Q p p p B < < < 1 % % % % ",
"O % % - > < < < m p p z v u u u u u u u u u u u u u u u u u u u u u u u u u u u u u u H W W W W W W W Q p p p B < < < 1 % % % % ",
"O % % - > < < < m p p z v u u u u u u u u u u u u u u u u u u u u u u u u u u u u u u H W W W W W W W Q p p p B < < < 1 % % % % ",
"O % % - > < < < m p p z v u u u u u u u u u u u u u u u u u u u u u u u u u u u u u u ( ) ) ) ) ) ) ) _ p p p B < < < 1 % % % % ",
"O % % - > < < < m p p z v u u u u u u u u u u u u u u u u u u u u u u u u u u u u u u ` ' ' ' ' ' ' ' ] p p p B < < < 1 % % % % ",
"O % % - > < < < m p p z v u u u u u u u u u u u u u u u u u u u u u u u u u u u u u u v p p p p p p p p p p p B < < < 1 % % % % ",
"O % % - > < < < m p p z v u u u u u u u u u u u u u u u u u u u u u u u u u u u u u u v p p p p p p p p p p p B < < < 1 % % % % ",
"O % % - > < < < m p p z v u u u u u u [ v v v { u u u u u u u u u u u u u u u u u u u { d d d d d d d h p p p B < < < 1 % % % % ",
"O % % - > < < < m p p z v u u u u u u 9 p p p d M u u u u u u u u u u u u u u u u u u u u u u u u u u N p p p B < < < 1 % % % % ",
"O % % - > < < < m p p z v u u u u u u 9 p p p d M u u u u u u u u u u u u u u u u u u u u u u u u u u N p p p B < < < 1 % % % % ",
"O % % - > < < < m p p z v u u u u u u 9 p p p d M u u u u u u u u u u u u u u u u u u u u u u u u u u N p p p B < < < 1 % % % % ",
"O % % - > < < < m p p z v u u u u u u 9 p p p d M u u u u u u u u u u u u u u u u u u u u u u u u u u N p p p B < < < 1 % % % % ",
"O % % - > < < < m p p z v u u u u u u 9 p p p d M u u u u u u u u u u u u u u u u u u u u u u u u u u N p p p B < < < 1 % % % % ",
"O % % - > < < < m p p z v u u u u u u 9 p p p d M u u u u u u u u u u u u u u u u u u u u u u u u u u N p p p B < < < 1 % % % % ",
"O % % - > < < < m p p z v u u u u u u 9 p p p d M u u u u u u u u u u u u u u u u u u u u u u u u u u N p p p B < < < 1 % % % % ",
"O % % - > < < < m p p z v u u u u u u 9 p p p d M u u u u u u u u u u u u u u M } N N | u u u u u u u N p p p B < < < 1 % % % % ",
"O % % - > < < < m p p z v u u u u u u 9 p p p d M u u u u u u u u u u u u u u v z p p d u u u u u u u N p p p B < < < 1 % % % % ",
"O % % - > < < < m p p z v u u u u u u 9 p p p d M u u u u u u u u u u u u u u v z p p d u u u u u u u N p p p B < < < 1 % % % % ",
"O % % - > < < < m p p z v u u u u u u 9 p p p d M u u u u u u u u u u u u u u v z p p d u u u u u u u N p p p B < < < 1 % % % % ",
"O % %  ...X.X.X.o.O.O.+.@.#.#.#.#.#.#.$.O.O.O.%.&.#.#.#.#.#.#.#.#.#.#.#.#.#.#.@.+.O.O.%.#.#.#.#.#.#.#.*.O.O.O.=.X.X.X.-.% % % % ",
"O % % ;.:.>.>.>.>.>.>.>.>.>.>.>.>.>.>.>.>.>.>.>.>.>.>.>.>.>.>.>.>.>.>.>.>.>.>.>.>.>.>.>.>.>.>.>.>.>.>.>.>.>.>.>.>.>.>.,.% % % % ",
"O % % ;.:.>.>.>.>.>.>.>.>.>.>.>.>.>.>.>.>.>.>.>.>.>.>.>.>.>.>.>.>.>.>.>.>.>.>.>.>.>.>.>.>.>.>.>.>.>.>.>.>.>.>.>.>.>.>.,.% % % % ",
"O % % ;.:.>.>.>.>.>.>.>.>.>.>.>.>.>.>.>.>.>.>.>.>.>.>.>.>.>.>.>.>.>.>.>.>.>.>.>.>.>.>.>.>.>.>.>.>.>.>.>.>.>.>.>.>.>.>.,.% % % % ",
"<.1.1.2.3.>.>.>.>.>.>.>.>.>.>.>.>.>.>.>.>.>.>.>.>.>.>.>.>.>.>.>.>.>.>.>.>.>.>.>.>.>.>.>.>.>.>.>.>.>.>.>.>.>.>.>.>.>.>.4.1.1.1.1.",
">.>.>.>.>.>.>.>.>.>.>.>.>.>.>.>.>.>.>.>.>.>.>.>.>.>.>.>.>.>.>.>.>.>.>.>.>.>.>.>.>.>.>.>.>.>.>.>.>.>.>.>.>.>.>.>.>.>.>.>.>.>.>.>.",
">.>.>.>.>.>.>.>.>.>.>.>.>.>.>.>.>.>.>.>.>.>.>.>.>.>.>.>.>.>.>.>.>.>.>.>.>.>.>.>.>.>.>.>.>.>.>.>.>.>.>.>.>.>.>.>.>.>.>.>.>.>.>.>.",
">.>.>.>.>.>.>.>.>.>.>.>.>.>.>.>.>.>.>.>.>.>.>.>.>.>.>.>.>.>.>.>.>.>.>.>.>.>.>.>.>.>.>.>.>.>.>.>.>.>.>.>.>.>.>.>.>.>.>.>.>.>.>.>.",
">.>.>.>.>.>.>.>.>.>.>.>.>.>.>.>.>.>.>.>.>.>.>.>.>.>.>.>.>.>.>.>.>.>.>.>.>.>.>.>.>.>.>.>.>.>.>.>.>.>.>.>.>.>.>.>.>.>.>.>.>.>.>.>."
};
