/* XPM */
static char *result[] = {
/* columns rows colors chars-per-pixel */
"64 82 162 2 ",
"   c #509B66",
".  c #279058",
"X  c #495332",
"o  c #434E2F",
"O  c #384529",
"+  c #2F663E",
"@  c #2F824F",
"#  c #396F44",
"$  c #2A8B55",
"%  c #573A23",
"&  c #4F331F",
"*  c #402717",
"=  c #345433",
"-  c #347949",
";  c #42603A",
":  c #22995D",
">  c #2D8551",
",  c #357748",
"<  c #553822",
"1  c #513520",
"2  c #483B24",
"3  c #444127",
"4  c #524329",
"5  c #424D2E",
"6  c #2D6C42",
"7  c #492E1C",
"8  c #4E321E",
"9  c #325B38",
"0  c #248E56",
"q  c #3B482B",
"w  c #4C4E2F",
"e  c #533721",
"r  c #3B633D",
"t  c #268853",
"y  c #452B19",
"u  c #3F663E",
"i  c #249057",
"p  c #2C7245",
"a  c #269259",
"s  c #34794A",
"d  c #694732",
"f  c #AC7B5D",
"g  c #7D563F",
"h  c #4A301C",
"j  c #543725",
"k  c #68472E",
"l  c #92684F",
"z  c #20120E",
"x  c #5D4C3E",
"c  c #C1AD8E",
"v  c #85735E",
"b  c #5D4131",
"n  c #229359",
"m  c #3E4328",
"M  c #684931",
"N  c #B18869",
"B  c #967259",
"V  c #604636",
"C  c #8E6C53",
"Z  c #604935",
"A  c #446E48",
"S  c #6B5037",
"D  c #A39176",
"F  c #675646",
"G  c #7BA77A",
"H  c #2E8E58",
"J  c #6C4A32",
"K  c #7D5D43",
"L  c #AB987C",
"P  c #48392E",
"I  c #766452",
"U  c #94826A",
"Y  c #7E6C58",
"T  c #BFA889",
"R  c #BCA182",
"E  c #78A073",
"W  c #3A9860",
"Q  c #B18567",
"!  c #B89879",
"~  c #6F8B5F",
"^  c #339A60",
"/  c #89845E",
"(  c #938A65",
")  c #BDA384",
"_  c #A69472",
"`  c #5B8F5F",
"'  c #35945D",
"]  c #91664C",
"[  c #997156",
"{  c #A9876A",
"}  c #5F7F55",
"|  c #503422",
" . c #976B4F",
".. c #9A7159",
"X. c #9F7C6C",
"o. c #9C7561",
"O. c #714D37",
"+. c #64544F",
"@. c #787E97",
"#. c #6C656C",
"$. c #2EA065",
"%. c #70A677",
"&. c #739B70",
"*. c #816A53",
"=. c #79614A",
"-. c #80869D",
";. c #8E93A6",
":. c #7A7275",
">. c #6A4F38",
",. c #798463",
"<. c #4DA36D",
"1. c #3EA169",
"2. c #AE987B",
"3. c #898EA3",
"4. c #A4A8B5",
"5. c #877F7F",
"6. c #866D52",
"7. c #554F54",
"8. c #5272A6",
"9. c #5A7AAC",
"0. c #6887B5",
"q. c #616A7F",
"w. c #474A5A",
"e. c #2B65B5",
"r. c #3C557F",
"t. c #71A07F",
"y. c #7689A2",
"u. c #6C7F98",
"i. c #41506C",
"p. c #395888",
"a. c #285FAD",
"s. c #2354A0",
"d. c #265BA8",
"f. c #335D9A",
"g. c #586984",
"h. c #73968F",
"j. c #219471",
"k. c #2559A5",
"l. c #1B438A",
"z. c #21509A",
"x. c #267F90",
"c. c #215F90",
"v. c #1D7175",
"b. c #1F6685",
"n. c #1D657B",
"m. c #1E7C70",
"M. c #248E62",
"N. c #364666",
"B. c #384867",
"V. c #345C70",
"C. c #1E826D",
"Z. c #1E8D68",
"A. c #2B6472",
"S. c #3C4C69",
"D. c #2C6D64",
"F. c #21995D",
"G. c #27804E",
"H. c #28814E",
"J. c #288E57",
"K. c #24955A",
"L. c #2B834F",
"P. c #248D56",
/* pixels */
"                                                                                                                                ",
"                                                                                                                                ",
"                                                                                                                                ",
"                                                                                                                                ",
"                                                                                                                                ",
"                                                                                                                                ",
"                                                                                                                                ",
"                                                                                                                                ",
"                                          . X X X X X o O O +     @ X X #                                                       ",
"                                          $ % % % % % & * * =     - % % ;                                                       ",
"                                          $ % % % % % & * * =     - % % ;                                                       ",
"                                          : > > , % % < 1 1 2 O O 3 % % 4 X X X X X 5 O O 6                                     ",
"                                                $ % % % % % & * * 7 % % % % % % % % 8 * * 9                                     ",
"                                                $ % % % % % & * * 7 % % % % % % % % 8 * * 9                                     ",
"                                    0 O O q X X w % % % % % < 1 1 e % % % % % % % % < 1 1 r                                     ",
"                                    t * * y % % % % % % % % % % % % % % % % % % % % % % % u                                     ",
"                                    t * * y % % % % % % % % % % % % % % % % % % % % % % % u                                     ",
"                              i * * y % % % % % % % % % % % & * * 7 % % % % % % % % % % % 8 * * p                               ",
"                              i * * y % % % % % % % % % % % & * * 7 % % % % % % % % % % % 8 * * p                               ",
"                              i * * y % % % % % % % % % % % & * * 7 % % % % % % % % % % % 8 * * p                               ",
"                              a % % % % % % % % e * * * * * * * * * * * 7 % % % % % % % % % % % s                               ",
"                              a % % % % % % % % e * * * * * * * * * * * 7 % % % % % % % % % % % s                               ",
"                              a % % % % % % % % e * * * * * * * * * * * 7 % % % % % % % % % % % s                               ",
"                              a % % % % % % % % e * * d f f f f f f f f f f f g * * h % % % % % s                               ",
"                              a % % % % % % % % e * * d f f f f f f f f f f f g * * h % % % % % s                               ",
"                              a % % % % % % % % e * * d f f f f f f f f f f f g * * h % % % % % s                               ",
"                              a % % % % % e * * j f f f f f f f f f f f f f f f f f g * * h % % s                               ",
"                              a % % % % % e * * j f f f f f f f f f f f f f f f f f g * * h % % s                               ",
"                              a % % % % % e * * j f f f f f f f f f f f f f f f f f g * * h % % s                               ",
"                              i * * y % % k f f l z z x c c c c c c c c v z z b f f g * * 9                                     ",
"                              i * * y % % k f f l z z x c c c c c c c c v z z b f f g * * 9                                     ",
"                              n O O m % % M N N B z z x c c c c c c c c v z z V N N C Z Z A                                     ",
"                                    $ % % S c c D z z x c c c c c c c c v z z F c c c c c G                                     ",
"                                    $ % % S c c D z z x c c c c c c c c v z z F c c c c c G                                     ",
"                                    H J J K c c L P P I c c c c c c c c U P P Y c c T R R E                                     ",
"                                    W f f Q c c c c c c c c c c c c c c c c c c c c ! f f ~                                     ",
"                                    W f f Q c c c c c c c c c c c c c c c c c c c c ! f f ~                                     ",
"                                    ^ / / ( R R ) c c c c c c c c c c c c c c T R R _ / / `                                     ",
"                                          W f f Q c c c c c c c c c c c c c c ! f f ~                                           ",
"                                          W f f Q c c c c c c c c c c c c c c ! f f ~                                           ",
"                                          ' ] ] [ R R R R R R R R R R R R R R { ] ] }                                           ",
"                                          t * * j f f f f f f f f f f f f f f g * * 9                                           ",
"                                          t * * j f f f f f f f f f f f f f f g * * 9                                           ",
"                                          t * * |  . ...X.X.X.X.X.X.X.X.o. . .O.* * 9                                           ",
"                                          t * * y % % +.@.@.@.@.@.@.@.@.#.% % 8 * * 9                                           ",
"                                          t * * y % % +.@.@.@.@.@.@.@.@.#.% % 8 * * 9                                           ",
"                                    $.%.%.&.*.*.=.% % +.@.@.-.;.;.;.;.;.:.% % >.*.*.,.%.%.<.                                    ",
"                                    1.c c c c c 2.% % +.@.@.3.4.4.4.4.4.5.% % 6.c c c c c G                                     ",
"                                    1.c c c c c 2.% % +.@.@.3.4.4.4.4.4.5.% % 6.c c c c c G                                     ",
"                                    1.c c c c c 2.% % 7.8.8.9.0.0.0.0.0.q.% % 6.c c c c c G                                     ",
"                                    1.c c c c c 2.% % w.e.e.e.e.e.e.e.e.r.% % 6.c c c c c G                                     ",
"                                    1.c c c c c 2.% % w.e.e.e.e.e.e.e.e.r.% % 6.c c c c c G                                     ",
"                                    $.%.%.t.y.y.u.i.i.p.e.e.a.s.s.d.e.e.f.i.i.g.y.y.h.%.%.<.                                    ",
"                                          j.e.e.e.e.e.e.e.e.k.l.l.z.e.e.e.e.e.e.e.e.x.                                          ",
"                                          j.e.e.e.e.e.e.e.e.k.l.l.z.e.e.e.e.e.e.e.e.x.                                          ",
"                                          j.e.e.e.e.e.a.s.s.c.v.v.b.s.s.d.e.e.e.e.e.x.                                          ",
"                                          j.e.e.e.e.e.k.l.l.n.    m.l.l.z.e.e.e.e.e.x.                                          ",
"                                          j.e.e.e.e.e.k.l.l.n.    m.l.l.z.e.e.e.e.e.x.                                          ",
"                                          M.N.N.B.i.i.V.v.v.C.    Z.v.v.A.i.i.S.N.N.D.                                          ",
"                                          t * * y % % ;                 - % % 8 * * 9                                           ",
"                                          t * * y % % ;                 - % % 8 * * 9                                           ",
"                                          F.G.G.H.> > J.                K.> > L.G.G.P.                                          ",
"                                                                                                                                ",
"                                                                                                                                ",
"                                                                                                                                ",
"                                                                                                                                ",
"                                                                                                                                ",
"                                                                                                                                ",
"                                                                                                                                ",
"                                                                                                                                ",
"                                                                                                                                ",
"                                                                                                                                ",
"                                                                                                                                ",
"                                                                                                                                ",
"                                                                                                                                ",
"                                                                                                                                ",
"                                                                                                                                ",
"                                                                                                                                ",
"                                                                                                                                ",
"                                                                                                                                ",
"                                                                                                                                ",
"                                                                                                                                "
};
