/* XPM */
static char *result[] = {
/* columns rows colors chars-per-pixel */
"27 32 213 2 ",
"   c #060607",
".  c #080708",
"X  c #09090A",
"o  c #0A090B",
"O  c #0B0A0B",
"+  c #0A0A0D",
"@  c #0C0A0C",
"#  c #0D0B0D",
"$  c #0E0B0D",
"%  c #0B0C0D",
"&  c #0D0C0D",
"*  c #0C0D0D",
"=  c #0D0C0E",
"-  c #0C0D0E",
";  c #0D0D0E",
":  c #0E0D0E",
">  c #0F0D0E",
",  c #0F0E0F",
"<  c #100D0E",
"1  c #130D0F",
"2  c #140D0E",
"3  c #14110F",
"4  c #18140F",
"5  c #1A150F",
"6  c #0D0D10",
"7  c #100F10",
"8  c #1C0E10",
"9  c #1D0E10",
"0  c #1D0F10",
"q  c #1F0E10",
"w  c #0E1310",
"e  c #0E1A13",
"r  c #131213",
"t  c #161310",
"y  c #181717",
"u  c #121B12",
"i  c #1C1A1A",
"p  c #1C1B1B",
"a  c #1D1B1B",
"s  c #1E1C1C",
"d  c #1F1D1D",
"f  c #200F11",
"g  c #230F11",
"h  c #251D10",
"j  c #261D10",
"k  c #261E10",
"l  c #201E1E",
"z  c #201F1E",
"x  c #371114",
"c  c #0C391D",
"v  c #0A3E1F",
"b  c #0B3F1F",
"n  c #292212",
"m  c #2B2212",
"M  c #2D2312",
"N  c #342811",
"B  c #3D2E13",
"V  c #3E2E13",
"C  c #262423",
"Z  c #282525",
"A  c #292726",
"S  c #2A2727",
"D  c #2A2827",
"F  c #2B2928",
"G  c #302E2C",
"H  c #312E2D",
"J  c #322F2E",
"K  c #323133",
"L  c #343130",
"P  c #383533",
"I  c #383633",
"U  c #393635",
"Y  c #3B3938",
"T  c #3D3A38",
"R  c #3E3B39",
"E  c #3F3B39",
"W  c #3F3C3A",
"Q  c #441216",
"!  c #441217",
"~  c #441317",
"^  c #451317",
"/  c #461216",
"(  c #461317",
")  c #471317",
"_  c #67161C",
"`  c #6F171D",
"'  c #74171E",
"]  c #403013",
"[  c #413013",
"{  c #423113",
"}  c #493613",
"|  c #4B3713",
" . c #4C3813",
".. c #403C3A",
"X. c #403D3B",
"o. c #413E3C",
"O. c #433F3D",
"+. c #2A471D",
"@. c #08642B",
"#. c #09662C",
"$. c #046F2F",
"%. c #07702F",
"&. c #09712F",
"*. c #057130",
"=. c #097230",
"-. c #256B2A",
";. c #25772E",
":. c #28782D",
">. c #28792E",
",. c #694E17",
"<. c #715117",
"1. c #45423F",
"2. c #46423F",
"3. c #447F2C",
"4. c #474340",
"5. c #474541",
"6. c #494542",
"7. c #4A4643",
"8. c #4A4743",
"9. c #4A4644",
"0. c #4D4A46",
"q. c #4E4C49",
"w. c #4F4E49",
"e. c #514D49",
"r. c #514E49",
"t. c #524E4A",
"y. c #524F4C",
"u. c #52504D",
"i. c #53514D",
"p. c #55514D",
"a. c #57524E",
"s. c #575651",
"d. c #5F5B56",
"f. c #6F504E",
"g. c #605C56",
"h. c #615D57",
"j. c #625D58",
"k. c #67625E",
"l. c #68635E",
"z. c #6D6863",
"x. c #6E6963",
"c. c #6F6964",
"v. c #6F6965",
"b. c #716B66",
"n. c #716B67",
"m. c #77716C",
"M. c #79736D",
"N. c #79746C",
"B. c #7A746E",
"V. c #7D7771",
"C. c #7C7772",
"Z. c #7D7772",
"A. c #7E7971",
"S. c #7F7A71",
"D. c #7E7873",
"F. c #7E7874",
"G. c #821920",
"H. c #AE1D27",
"J. c #B01E28",
"K. c #B61E29",
"L. c #C01F2A",
"P. c #C11F2A",
"I. c #C31F2B",
"U. c #CD202C",
"Y. c #CD212C",
"T. c #CE212C",
"R. c #D1212D",
"E. c #D3212D",
"W. c #D4212D",
"Q. c #827C74",
"!. c #867F79",
"~. c #B46867",
"^. c #46812D",
"/. c #5C852B",
"(. c #BC871E",
"). c #BC9022",
"_. c #C68E1F",
"`. c #C38F20",
"'. c #C48D20",
"]. c #C48F20",
"[. c #C78E20",
"{. c #C69121",
"}. c #CA9020",
"|. c #CD9D24",
" X c #D09F24",
".X c #D5A024",
"XX c #838078",
"oX c #868078",
"OX c #8E8680",
"+X c #8E8780",
"@X c #8F8880",
"#X c #918A83",
"$X c #918C83",
"%X c #928B84",
"&X c #9F8F88",
"*X c #989089",
"=X c #9A938A",
"-X c #9A928B",
";X c #9B938B",
":X c #9C948C",
">X c #9D958D",
",X c #A19991",
"<X c #A29A92",
"1X c #A8A097",
"2X c #A9A098",
"3X c #ACA39B",
"4X c #BBB2A8",
"5X c #DA9490",
"6X c #CCC2B6",
"7X c #CEC5B9",
"8X c #D1C7BB",
"9X c #D7CDC0",
"0X c None",
/* pixels */
"0X0X0X0X0X0X0X0X0X0X0X0X0X0X0X0X0X0X0X0X0X0X0X0X0X0X0X",
"0X0X0X0X0X0X0X0X0X0X0X0X0X0X0X0X0X0X0X0X0X0X0X0X0X0X0X",
"0X0X0X0X0X0X0X0X0X0X0X0X0X0X0X0X0X0X0X0X0X0X0X0X0X0X0X",
"0X0X0X0X0X0X0X0X0X0X0X0X0X0X0X0X0X0X0X0X0X0X0X0X0X0X0X",
"0X0X0X0X0X0X0X0X0X0X0X0X0X0X0X0X0X0X0X0X0X0X0X0X0X0X0X",
"0X0X0X0X0X< x ) ( ^ Q ! ~ g % 0X0X0X0X0X0X0X0X0X0X0X0X",
"0X0X0X0X0X1 G.J.H.K.U.Y.T.` 9 ; 0X0X0X0X0X0X0X0X0X0X0X",
"0X0X0X0X0X> 8 f 0 ) L.R.E.I._ - 0X0X0X0X0X0X0X0X0X0X0X",
"0X0X0X0X0X0X0X- * 2 / P.W.' q = & & : 0X0X0X0X0X0X0X0X",
"0X0X0X0X0X0X0XX R $X&X5X~.f.w.t.r.0.i 0X0X0X0X0X0X0X0X",
"0X0X0X0X0X0X0X  j.9X@XXXs.5.7.8.8.4.y O 0X0X0X0X0X0X0X",
"0X0X0X0X0X0X0X. p.=Xp 4.e.e.6.W E X.W s 0X0X0X0X0X0X0X",
"0X0X0X0X0X0X0Xo I h.G 7X6X8X4X:X3X*X1XO.0X0X0X0X0X0X0X",
"0X0X0X0X0X0X0Xo P d.H 6Xa.M.b.9.>XL #X1.0X0X0X0X0X0X0X",
"0X0X0X0X0X0X0Xo P g.F 2XE v.l.o.;XA +X1.0X0X0X0X0X0X0X",
"0X0X0X0X0X0X0Xo P g.A >XU c.k...-XZ OX2.0X0X0X0X0X0X0X",
"0X0X0X0X0X0X0Xo I h.S <Xm.%X+XB.2Xz.,X1.0X0X0X0X0X0X0X",
"0X0X0X0X0X0X0X@ D 2.l n.F.Z.Z.D.C.D.V.J 0X0X0X0X0X0X0X",
"0X0X0X0X0X0X: w e e u n M M M M M m t : 0X0X0X0X0X0X0X",
"0X0X0X0X0X0X$ c #.@.-.).}._._._.[.(.N 0X0X0X0X0X0X0X0X",
"0X0X0X0X0X0X$ b =.%.>. X<.B ] ] [ V 4 0X0X0X0X0X0X0X0X",
"0X0X0X0X0X0X$ b &.%.:.|.} K i.y.u.q.p 0X0X0X0X0X0X0X0X",
"0X0X0X0X0X0X$ v *.$.;.|.| q.Q.S.A.N.C 0X0X0X0X0X0X0X0X",
"0X0X0X0X0X0X# +.^.3./..X .Y g.x.oXg.d 0X0X0X0X0X0X0X0X",
"0X0X0X0X0X0X+ ,.{.`.].'.{ 6 , T !.z : 0X0X0X0X0X0X0X0X",
"0X0X0X0X0X0X; 5 k j j h 3 0X0Xr a 7 0X0X0X0X0X0X0X0X0X",
"0X0X0X0X0X0X0X0X0X0X0X0X0X0X0X0X0X0X0X0X0X0X0X0X0X0X0X",
"0X0X0X0X0X0X0X0X0X0X0X0X0X0X0X0X0X0X0X0X0X0X0X0X0X0X0X",
"0X0X0X0X0X0X0X0X0X0X0X0X0X0X0X0X0X0X0X0X0X0X0X0X0X0X0X",
"0X0X0X0X0X0X0X0X0X0X0X0X0X0X0X0X0X0X0X0X0X0X0X0X0X0X0X",
"0X0X0X0X0X0X0X0X0X0X0X0X0X0X0X0X0X0X0X0X0X0X0X0X0X0X0X",
"0X0X0X0X0X0X0X0X0X0X0X0X0X0X0X0X0X0X0X0X0X0X0X0X0X0X0X"
};
