/* XPM */
static char *_8de78b7172942ce83e1d893bd12fc43cnn14B7AMYDw7Gg7[] = {
/* columns rows colors chars-per-pixel */
"32 32 195 2 ",
"   c #509B66",
".  c #279058",
"X  c #327D4C",
"o  c #2C7849",
"O  c #268450",
"+  c #219B5E",
"@  c #259359",
"#  c #367447",
"$  c #573A23",
"%  c #462C1A",
"&  c #354F2F",
"*  c #24965B",
"=  c #288E56",
"-  c #534228",
";  c #563922",
":  c #4D3620",
">  c #40321E",
",  c #544027",
"<  c #524228",
"1  c #3D311D",
"2  c #27834F",
"3  c #2E6940",
"4  c #3B5433",
"5  c #465936",
"6  c #553D25",
"7  c #543822",
"8  c #50341F",
"9  c #4F341F",
"0  c #2B8350",
"q  c #209A5E",
"w  c #27824F",
"e  c #3C482B",
"r  c #4D321E",
"t  c #553922",
"y  c #523620",
"u  c #336F43",
"i  c #258A54",
"p  c #238F57",
"a  c #412E1B",
"s  c #4E331E",
"d  c #422918",
"f  c #563923",
"g  c #472D1B",
"h  c #365030",
"j  c #269158",
"k  c #533D25",
"l  c #563A23",
"z  c #442A19",
"x  c #412818",
"c  c #402717",
"v  c #435A37",
"b  c #269259",
"n  c #553E26",
"m  c #6F4C36",
"M  c #7F5840",
"N  c #865D43",
"B  c #6E4C34",
"V  c #4A2F1C",
"C  c #445B38",
"Z  c #543721",
"A  c #513520",
"S  c #62422D",
"D  c #9A6D51",
"F  c #AC7B5D",
"G  c #8E644A",
"H  c #64432E",
"J  c #553822",
"K  c #543E25",
"L  c #4D311F",
"P  c #9E7055",
"I  c #AB7B5E",
"U  c #AD7D5F",
"Y  c #A8795C",
"T  c #A9795B",
"R  c #503822",
"E  c #435E39",
"W  c #248F57",
"Q  c #422E1C",
"!  c #503520",
"~  c #755138",
"^  c #956A4F",
"/  c #3B261D",
"(  c #9B846C",
")  c #BFA588",
"_  c #614C3D",
"`  c #654635",
"'  c #2D7748",
"]  c #20995D",
"[  c #2A7849",
"{  c #484E2F",
"}  c #806349",
"|  c #AD9075",
" . c #2D1E17",
".. c #99856E",
"X. c #C1AB8E",
"o. c #564539",
"O. c #604B3D",
"+. c #BA9B7E",
"@. c #967F67",
"#. c #3D9662",
"$. c #536641",
"%. c #907358",
"&. c #B7A286",
"*. c #524236",
"=. c #A38E76",
"-. c #715F4E",
";. c #7B6856",
":. c #BC9F82",
">. c #469E69",
",. c #7D875E",
"<. c #B58F72",
"1. c #42955F",
"2. c #5A905F",
"3. c #AE7F61",
"4. c #BFA78A",
"5. c #B9977A",
"6. c #407B4E",
"7. c #735039",
"8. c #AF896C",
"9. c #977258",
"0. c #6D4A34",
"q. c #2D6D42",
"w. c #472C1B",
"e. c #896045",
"r. c #987667",
"t. c #9B7C70",
"y. c #936D57",
"u. c #6F4B35",
"i. c #706D7A",
"p. c #787E97",
"a. c #62514A",
"s. c #4E321E",
"d. c #367446",
"f. c #858BA0",
"g. c #A0A5B3",
"h. c #705E53",
"j. c #67A474",
"k. c #939976",
"l. c #987F64",
"z. c #5D4029",
"x. c #486189",
"c. c #4872AE",
"v. c #527BB5",
"b. c #555054",
"n. c #755941",
"m. c #9E856A",
"M. c #8BA77F",
"N. c #3AA068",
"B. c #B7A388",
"V. c #554D4E",
"C. c #325D9A",
"Z. c #2862B2",
"A. c #265DAB",
"S. c #2965B5",
"D. c #40506C",
"F. c #7D7065",
"G. c #48A16C",
"H. c #82A67C",
"J. c #B4A88D",
"K. c #A9A094",
"L. c #356AB2",
"P. c #2863B2",
"I. c #245AA3",
"U. c #1D4D8A",
"Y. c #2964B4",
"T. c #6380A6",
"R. c #B4A591",
"E. c #B4AA8A",
"W. c #44A16B",
"Q. c #289F63",
"!. c #308985",
"~. c #2A66B5",
"^. c #204E98",
"/. c #1D6180",
"(. c #1E9067",
"). c #1C468E",
"_. c #255BA8",
"`. c #2E67B4",
"'. c #366BB2",
"]. c #2D9F64",
"[. c #229E61",
"{. c #29775D",
"}. c #38425A",
"|. c #434B5F",
" X c #276D6D",
".X c #1E856C",
"XX c #1F9B62",
"oX c #1D7872",
"OX c #375B66",
"+X c #3E475D",
"@X c #374159",
"#X c #287D4C",
"$X c #288D56",
"%X c #387245",
"&X c #3E5634",
/* pixels */
"                                                                ",
"                                                                ",
"                                                                ",
"                      . X X o O + X @                           ",
"                      # $ $ % & * $ X                           ",
"                      + = - ; : > $ , < < 1 2                   ",
"                    3 4 5 6 $ 7 8 $ $ $ $ 9 0                   ",
"                q w e r $ $ $ t y $ $ $ $ $ u i                 ",
"                p a 8 $ $ t t s d t f $ $ $ g h                 ",
"                j k l $ t z d x c d 8 $ $ $ ; v                 ",
"                b n $ $ t d m M M M N B V $ $ C                 ",
"                b n $ Z A S D F F F F G H 9 J C                 ",
"                j K $ 8 L P I U U U Y T F c R E                 ",
"                W Q ! ~ ^ / ( ) ) ) _ ` F c ' *                 ",
"                ] [ { } |  ...X.X.X.o.O.+.@.#.                  ",
"                    $.%.&.*.=.X.X.X.-.;.X.:.>.                  ",
"                    ,.<.X.X.X.X.X.X.X.X.X.F 1.                  ",
"                      2.3.4.X.X.X.X.X.5.F                       ",
"                      6.7.8.<.<.<.<.<.9.0.                      ",
"                      q.w.e.r.t.t.t.y.u.c                       ",
"                      q.d t i.p.p.p.a.s.c                       ",
"                      d.t $ i.f.g.g.h.f t                       ",
"                    j.k.l.z.x.c.v.v.b.n.m.M.N.                  ",
"                    M.X.B.V.C.Z.A.S.D.F.X.X.G.                  ",
"                    H.J.K.L.P.I.U.Z.Y.T.R.E.W.                  ",
"                    Q.!.L.~.^./.(.)._.`.'.].[.                  ",
"                      {.}.|. X.XXXoXOX+X@X                      ",
"                      #Xh v $X      %X&X&                       ",
"                                                                ",
"                                                                ",
"                                                                ",
"                                                                "
};
