/* XPM */
static char *result[] = {
/* columns rows colors chars-per-pixel */
"64 64 70 1 ",
"  c #010102",
". c #050609",
"X c #07080B",
"o c #090A0E",
"O c #0C0D12",
"+ c #0F1116",
"@ c #101217",
"# c #12141B",
"$ c #14181F",
"% c #161A22",
"& c #181D27",
"* c #1D222D",
"= c #212635",
"- c #232937",
"; c #232A3C",
": c #282E3E",
"> c #262E41",
", c #282F42",
"< c #2A3145",
"1 c #2D354A",
"2 c #2F384E",
"3 c #31394F",
"4 c #333C53",
"5 c #364057",
"6 c #3A4256",
"7 c #374158",
"8 c #3A445C",
"9 c #3C4660",
"0 c #3E4963",
"q c #444C5F",
"w c #404B66",
"e c #434E69",
"r c #46516D",
"t c #49536E",
"y c #475370",
"u c #4A5672",
"i c #4D5976",
"p c #4E5A78",
"a c #515C76",
"s c #525E7B",
"d c #54607F",
"f c #58637D",
"g c #566281",
"h c #596685",
"j c #5D6985",
"k c #5A6788",
"l c #5D6A8A",
"z c #626D86",
"x c #606E8F",
"c c #657089",
"v c #727B8C",
"b c #616F91",
"n c #647294",
"m c #697695",
"M c #6F7A92",
"N c #677598",
"B c #687699",
"V c #6D7B9B",
"C c #717E9D",
"Z c #74809D",
"A c #7A859C",
"S c #7582A1",
"D c #7985A2",
"F c #7D8AA5",
"G c #818DA4",
"H c #838FA9",
"J c #8692AB",
"K c #8995AC",
"L c #8E99AF",
"P c #8F9AB0",
/* pixels */
" +affgg81.  ;6554&.qsggge4o#gghw3o  &8aggggw6Ooggggj5: <fgg5:   ",
"O*lNNNBa8..o4ryrr;@umBNNsr%*NNBgwO O<rbmNNBdt%$NBNNNr4O6NmNr3 o#",
"inBBNNNnf.&wgNNNbpwkBNNNBberNNNbk+OwsNBNNNNNNr0NNNNNNh0sNNNNr 6n",
"aNNNNNNNk=3sbNNNBksbBmNNBmrrNNNNz>:skNNNNNNNNggNNNNNNl0dNNNNa*rN",
"smNNNNNNbwsNNNNNBBBBNBNNBbuuBBNNNyyNNNNNNNNNNmNBNNNNNkwdNNNNjwgB",
"wsNNNNNNl4emNNNNbBBSFBNmBb44pkNNx48NNNNNNNNNNBBGANNNBg20pnNNg2sm",
"4rnNNNNNl,9BNBNNBBBJKBmBBb2,wgNNx13BNNNNBNNNNNBPFNNNNd;4wbNNs;uN",
"ibmNNNNNb0iNNBJKLCBsaHKKzyklbbNge9eNNNHKKKKKKVnicKKKrillbNNNNlpr",
"gVVVVBNNbepBVCJKKDBuwAGGxpBCNNngrwyBBCHKKKJKKSN8fGGFigVVVVVVCVgt",
"vPPPPDNNbesBHKVBBGKq>wewmPPKNNNNNeyBDLCBNBBBNJG;2eweLPPLLLLLLLSN",
"zFFFFCNpe4wgCDBBBCSw:344zFDCNNngy48gnFVNNNNNNDC;<343FFFFFFFFFFjt",
"sNNNBBN4;;20lNNNBBb4;;;;uNNNNNn9;;,wgNNNNNNNNNb;;;;;NNNNBNNNNN0;",
"sniupuu04;8lnNNliuuss,4gxNNbyygw8>2lbBNNNkiuuuigw;tfNNNNNNNiuuw8",
"ilrwe0009>0Nnbbkewekl14NNNbkww9w9>2BNbnbbgww00ent;dNNNNnnbbwwww0",
"5e0we0009>9Npyeewwwww>4NNNuewwww0>3Bgeeeeewwwwwe5;dNNNNgeeewwwww",
"3www00e09>8lpp00wwww9>4khksuwwww0>2hspewwwwwwwww5;thkkhp0ipwwwww",
"4ww0wwww9;20lny00e000>100ebk00ww0>10gNy000y000004;70e0e0ebN000e0",
"4wwwww041;,1ei0000042;>290gy00w71;;10g00y0000002<;<2000e0pp00e42",
"3800000<-;;;40eey002>;;;40000001;;;;2000y000y00>;;;;90000909004;",
"+$<<<1<;;;;;<2klxxxy4;;;,1<<211>;;;;>112bblxbnx02;;;1<1<11<11<>;",
" X>111<:;;;;,4bNnNlg0>;><<11<1<<1;;;;;<2NNNnnnx07;:>1<<11<11<11<",
" +gbbbb2;;;;ibNl000lb110gbbbbbbbk<;;;;gbNNng000Ni;50bbbnbbbbbbbb",
"*<xNNNNe5;18shkggy0hg44plBNNBNNNb07;49gkkkkgg00xt2rpNNNNNNNNNNNN",
"smNNNNNmk,0Np0wing0000pNNNNNNNNnNnk;0Ny0000gNg0000kNNNNNNNNNNNNN",
"snsipppbl,4pewweuy000kbNNnguggyggbk;7g0000ygu000ykbNNxggppgiigii",
"axewwwwlk,20wwww00000nnnnny00y000xk;400000000000gNNbbk00w00e0000",
"4rwwwwwe0;2w0www0004<blyyu000000000;40000000000>9Ng00y000e000000",
"4wwwwww84>1888889791;gg0000000y0008;29909797097>7gg00000e00er0r0",
"4wwwwww,>;;;;;;;;;;;;;10000000000>;<;;;;;;;;;;;;;;70900000000000",
"&:ssddgyrryere>;;170u0yggk09472ygg000yg0y8;;;24y0ygggg09424ggggk",
" #zNBmNNNNNNNl<;;70lBNNbNny7>;>ynnnnnbnnnu;;;90BNNNNNk04>;;bNNNN",
"4tnNNhipppipxNse>0lnNNbggugg;7gkNNbyggugnkg2;gkNNbggugk0;ygNNNgg",
"gNbbbg0y0000lNlg>0Nnbll000kg>0Nnbbx000ypkbb7;kNbbny0yyn0;kNnbng0",
"gbyy0y0000gbg009>gNg0g00y009;0Ngy0p000kbyyy2;knyy0y000y7;lNyy000",
"0ky00000y0gl0009>0g000000097;9ky000000kk0y02;yg000000072;gl00000",
"7000y00y00y00007>;;9y00000>;;2ww00y000000002;;;0y0y007;;;900y0y0",
"&;9000y0y00y0071;;;1222272>;;>290y00000y002>;;>2222221;;;2200y00",
"XO900000000000>;>>;;;;;;>>>;>;>70000y00007>>;>;;;;;;;;;>;>>000y0",
"0gxxblb4>>70gbllkkg4;;;;0kkkkkk91<20gbNnbkkkkkg;;;;;kkkkkkkbbb0>",
"gNbbbbb7>;4ylNNnbbx91;>2gNNNbbbw>;10gNNNNnbbbbk1<;12NNNNNNNbbb0>",
"gly000009;0NNNNl000bb<7NNNNk00ww0>2NNNNNNg000eyNy;gNNNNNNNN0000y",
"0g00r00y9>0Nkgkg000gg>7NNNkg00y00>2Nbggggp000eeg0;pNNNNkggk0y000",
"400r00009;0Ng00000009;7Nbbyw00000>2Ng0y00yy0e0e07;gNNNNg0000y00y",
"4000y00y9;4ygg00y00y9;1ggykgy0y00>1pgky000000e007;0pyppy0kb00000",
"700000y09;19kb0w00009>10wwbb000w9><0gby00y00y0004;700e000kN00000",
"40000002;;;10y0w0002>;;<7w0y0002<;;>7y000000000<>;>>00e00yy00y21",
"1889990<;;;;790gg004>;;;499000w2;;;;2999yyyyyyy<;;;;99990099992;",
"..;;;;;>;;;;;1bNNNbg9>;;;;;;;>>>;;;;;;;<NNNNNNb07;;;;;;;;;;;;;;;",
" O8wwww,;;;;4rNbkgggp>>2900000009>;;;;90NNNkgkgg0;2200y00000000g",
" @kNNNB3;;;;sBBk000lx120knBBNNBBl>;;;;kbNNNgw00Ny;70NNNNBBNNBBNn",
"8sNNNNBha>4gsyyslp0gy90lnNBBNNNBNkg;9gygygy0ww0g09gkNNBBBNNNNNNN",
"sNNbNbNmk>wmiwwibg0000gNNNNNNNNNNNk>0nyww9wwwwy0y0kNNNNBNNNNNnnn",
"sxewwwwxk>2wwwww00000nNNNny000000bk;4wwwwwww0000gNNNNl0000000000",
"tgewwwess>2w0www00000bnlkky0000y0kg;70wwwwww0009yNlkkg000y0y00y0",
"4wwwwwww9;2wwwww00011bl0000yy0y0007;20wwwwww009;9Ng0000yy0000000",
"4wwwwww42;,22222222<;90000000000021;>2222222222;209900000000y0y0",
"4wwwwww,;;;;;;;;;;;;;;10000000000<;;;;;;>;;;;;>>;;7w0000y0wwwwww",
".$kbmbBbbbbbbk,;;20kbbnnNny9>>10nnbbbnbbb0;;;70bbbnnNk04>>>nnnnn",
".%lNBNbNbmbmNb2>;70knNNnnny9>>>gNNNNNBnnNg>>;90BNNNnNky4;<<NNnnn",
"smNNNsw0wwwwkBBs;gBnNNl000bk;0NNNNl00000NNN9;kBBNNywwgN0;kNNNngw",
"ankkkiwwwweighky;ynkkbg00ykg;0Nkkbk000gglkk7;knkkkywwyk9>kNkkky0",
"sbewwwwwwwsNiww8;gng00000007;0Ng000000lby002;kbwwwwwwww2;bN0ww00",
"wiewwwwwwwyseww4;29w00y00021;7gy00y000gy0001;49wwwwww92>;yg0y000",
"4wwwwwwwwwwwwww8;;;90y0000>;;2w0y00000000001;;>wwwwww7;;;900000y"
};
