/* XPM */
static char *_7659f915b3b4491d313cf410703f54b1h58Aobfl55ABCoL[] = {
/* columns rows colors chars-per-pixel */
"32 32 75 1 ",
"  c #07080A",
". c #090A0E",
"X c #0C0E11",
"o c #121319",
"O c #1A1D27",
"+ c #1B1E28",
"@ c #1F222C",
"# c #20242F",
"$ c #252936",
"% c #262B3C",
"& c #282D3E",
"* c #2B303E",
"= c #292E41",
"- c #2C3244",
"; c #2F3548",
": c #313645",
"> c #31374B",
", c #33394D",
"< c #363C52",
"1 c #383F54",
"2 c #3A4156",
"3 c #3D445B",
"4 c #40475E",
"5 c #40485F",
"6 c #404760",
"7 c #434B64",
"8 c #484F65",
"9 c #464F68",
"0 c #495167",
"q c #47506A",
"w c #4A526C",
"e c #50576D",
"r c #4E5671",
"t c #4F5873",
"y c #525B76",
"u c #545E7A",
"i c #57607C",
"p c #58627E",
"a c #5B6582",
"s c #5F6986",
"d c #5F6A88",
"f c #616A83",
"g c #606B89",
"h c #616C8A",
"j c #656E89",
"k c #636D8C",
"l c #646F8E",
"z c #65708E",
"x c #6A738E",
"c c #6E778D",
"v c #677190",
"b c #697393",
"n c #6A7490",
"m c #6C7590",
"M c #697494",
"N c #6C7797",
"B c #6F7A97",
"V c #6D7898",
"C c #727B91",
"Z c #747E96",
"A c #707A99",
"S c #737D9A",
"D c #747E9B",
"F c #747F9C",
"G c #778097",
"H c #76809D",
"J c #78819A",
"K c #78839E",
"L c #7A849F",
"P c #7B85A0",
"I c #7C86A0",
"U c #7E88A2",
"Y c #808AA3",
"T c #818BA4",
"R c #828CA5",
/* pixels */
"@aba#.2w,:bvw$gs% 2kbs-3Ml5*ziOX",
"aMMM2<gbsuMMlwvM3>sMMMpaMMsrMb,0",
"ibMMrpMMMASMv7aMyuMMMMMSVMg7gMwa",
"ybMMrpVIKnZIswak9uNLUUFxJLpwsMuy",
"GRLMusPPIf0fcLVlraLPLLUyefCYTTYj",
"mSBy,7mMMu->jFni,6nNMvNq=<mHHDBq",
"prw7>rldwt3qbgr7>qllswwy1yMbluq6",
"6767,ru977<why77<quq7767,ukaww67",
"3773;<y963;,7u95;,yq6663-<77rt73",
"$,<;%%<yuq-%><<;%%>2yuu6=&,<<<<=",
"X7r3%&9kui3>qrrr2%&qvkui<<wrrrrr",
"8zMg26yyuq7ynMnMg17ytuyw7pMMnMnn",
"atwp7377q6yvltwwp53767q6pvgrwwww",
"6766>,333,6t97776>,3333,qr977666",
"-wt9232==,3qr7267223<&-<3wr627tt",
">hzpppg6,aMspr>yMsias22gnsp7,pMs",
"spt77yiw3guw7q2guw7ui77su9976suq",
"77677w92-3666;;q777w71;3663-<q67",
"@6q7567<---->-;156796,---->-;3q6",
"ussq-6sgaw--ugaq-3svkaa6&,aggsa3",
"uw97,yhaqr3wMsq7,wkdaq9y2iNbgy76",
"3777<wu777<9ay77<7u97777,tsuww67",
"3773->w973-;6y73-;w97772-,67ww61",
"+>,-%%,uar;%;,,;%%-1iaa9-&>,,,,-",
"owa7&-rhyu6<yppp6&-tvgru22uppppp",
"ylzk57rru99pMvlzh37rwq69qsMzzzzz",
"iw9u627796ylsw99u3377776alaq9999",
"5763->111>3w77773->1111;6q777766",
"&tur776==27tu7<6r7773%-37yy6<7uu",
"4lkuuuhq<dMaut,uMsuih63lMpuq<sMa",
"suw67yu92at9772at97uy66ar7736ar9",
"77677q73-2676-;9677w72-3673-<967"
};
