/* XPM */
static char *result[] = {
/* columns rows colors chars-per-pixel */
"32 32 256 2 ",
"   c black",
".  c #050504",
"X  c #1F1A17",
"o  c #221C19",
"O  c #100E0C",
"+  c #060505",
"@  c #221C18",
"#  c #251E1A",
"$  c #120F0D",
"%  c #030302",
"&  c #14100F",
"*  c #2D241B",
"=  c #8E6F47",
"-  c #99784C",
";  c #99774C",
":  c #9A784D",
">  c #56442E",
",  c #161210",
"<  c #0B0908",
"1  c #060504",
"2  c #201B17",
"3  c #423527",
"4  c #C2975E",
"5  c #D2A365",
"6  c #D1A264",
"7  c #D0A164",
"8  c #D0A264",
"9  c #D3A465",
"0  c #795F3F",
"q  c #241D1A",
"w  c #120E0C",
"e  c #010100",
"r  c #171311",
"t  c #2A221A",
"y  c #8D6E47",
"u  c #A48051",
"i  c #CA9D61",
"p  c #CEA063",
"a  c #CEA163",
"s  c #C9995E",
"d  c #B67E4E",
"f  c #BB8552",
"g  c #CD9F62",
"h  c #C6955C",
"j  c #B57D4D",
"k  c #B47C4D",
"l  c #C08D57",
"z  c #CFA163",
"x  c #B48C58",
"c  c #9C7A4D",
"v  c #54422D",
"b  c #161211",
"n  c #181412",
"m  c #211B19",
"M  c #3B2F24",
"N  c #BF955D",
"B  c #D1A365",
"V  c #C6945C",
"C  c #AB6F45",
"Z  c #B2794B",
"A  c #CC9E62",
"S  c #CFA164",
"D  c #C29059",
"F  c #AA6E44",
"G  c #A96D43",
"H  c #A96C43",
"J  c #B98351",
"K  c #CD9F63",
"L  c #CE9F63",
"P  c #72593B",
"I  c #201A18",
"U  c #231C19",
"Y  c #201B18",
"T  c #3A2E23",
"R  c #BD935B",
"E  c #C9995F",
"W  c #B67F4E",
"Q  c #B37A4B",
"!  c #CD9E62",
"~  c #AA6F44",
"^  c #AF7448",
"/  c #B47C4C",
"(  c #C18D57",
")  c #70583B",
"_  c #1F1A18",
"`  c #AC7146",
"'  c #A96D44",
"]  c #AB7045",
"[  c #BD935C",
"{  c #CB9B60",
"}  c #B37B4C",
"|  c #C4935B",
" . c #C5935B",
".. c #C18E58",
"X. c #AD7146",
"o. c #AA6D44",
"O. c #CB9C61",
"+. c #C28F58",
"@. c #B7804F",
"#. c #CFA264",
"$. c #BF8C56",
"%. c #BC8754",
"&. c #AD7246",
"*. c #AF7548",
"=. c #C4915A",
"-. c #B07749",
";. c #BF8B56",
":. c #BC8854",
">. c #BE8A55",
",. c #AD7247",
"<. c #B1774A",
"1. c #AB6F44",
"2. c #B37A4C",
"3. c #A76B43",
"4. c #A66B43",
"5. c #A76C43",
"6. c #AC7045",
"7. c #3A2F23",
"8. c #CA995F",
"9. c #9E6541",
"0. c #734535",
"q. c #704234",
"w. c #6F4233",
"e. c #7F4E38",
"r. c #A86D44",
"t. c #B77F4F",
"y. c #C7965D",
"u. c #B98251",
"i. c #BD8854",
"p. c #392E23",
"a. c #B78E59",
"s. c #C4945C",
"d. c #9A6240",
"f. c #623830",
"g. c #5E352F",
"h. c #5D342E",
"j. c #724434",
"k. c #A86C43",
"l. c #B98451",
"z. c #BC8753",
"x. c #B98552",
"c. c #CA9C61",
"v. c #6D5539",
"b. c #2E231E",
"n. c #6D4737",
"m. c #7F523C",
"M. c #633930",
"N. c #5E362F",
"B. c #734534",
"V. c #B27A4B",
"C. c #AD7347",
"Z. c #AE7447",
"A. c #AB6E44",
"S. c #905D3F",
"D. c #774C3A",
"F. c #483228",
"G. c #211B18",
"H. c #211C19",
"J. c #2A1F1C",
"K. c #57322C",
"L. c #6A3E32",
"P. c #A46942",
"I. c #9B6340",
"U. c #673C31",
"Y. c #623930",
"T. c #764735",
"R. c #835139",
"E. c #3D2723",
"W. c #2B201C",
"Q. c #58332D",
"!. c #6C3F33",
"~. c #9C6340",
"^. c #9F6641",
"/. c #845139",
"(. c #5F352F",
"). c #3E2823",
"_. c #A96E44",
"`. c #A56A43",
"'. c #CB9C60",
"]. c #CC9D61",
"[. c #C08C57",
"{. c #814F39",
"}. c #A46A42",
"|. c #704334",
" X c #794A36",
".X c #B1784A",
"XX c #AE7448",
"oX c #8D583C",
"OX c #6C4033",
"+X c #663B31",
"@X c #5F362F",
"#X c #A56A42",
"$X c #9D6540",
"%X c #683C31",
"&X c #88553B",
"*X c #613830",
"=X c #60362F",
"-X c #A06641",
";X c #945E3E",
":X c #6B3F32",
">X c #86533A",
",X c #7D4C37",
"<X c #A56B43",
"1X c #8F5A3D",
"2X c #7E4D38",
"3X c #AC6F45",
"4X c #845239",
"5X c #9D6440",
"6X c #7C4C37",
"7X c #A86D43",
"8X c #5D352F",
"9X c #8E593C",
"0X c #693E32",
"qX c #89563B",
"wX c #AC6F44",
"eX c #5D352E",
"rX c #925C3D",
"tX c #653A31",
"yX c #825039",
"uX c #8B573B",
"iX c #9B6240",
"pX c #1E1916",
"aX c #271D1A",
"sX c #52302A",
"dX c #653C30",
"fX c #9C6440",
"gX c #A36942",
"hX c #714334",
"jX c #A06741",
"kX c #A36842",
"lX c #A26842",
"zX c #7D4D37",
"xX c #392521",
"cX c #1F1916",
"vX c #040403",
"bX c #0A0807",
"nX c #261D1A",
"mX c #352520",
"MX c #60372F",
"NX c #6B3E32",
"BX c #4A2F27",
"VX c #2A201C",
"CX c #16110F",
"ZX c #050404",
"AX c #040303",
"SX c #1A1614",
"DX c #53302A",
"FX c #58332C",
"GX c #3A2521",
"HX c #1D1916",
"JX c #0D0B0A",
"KX c #0B0807",
"LX c #17110F",
"PX c #020201",
"IX c #1F1917",
"UX c #100D0C",
/* pixels */
"      . X o o o o o o o o o o o o o o o o o o o o o o O         ",
"      + @ # # # # # # # # # # # # # # # # # # # # # # $         ",
"  % & * = - ; ; ; ; ; ; ; ; ; ; ; ; ; ; ; ; ; ; ; ; : > , <     ",
"  1 2 3 4 5 6 6 7 7 6 6 6 6 6 6 7 7 7 7 7 7 7 8 6 6 9 0 q w   e ",
"r t y u i p a s d f g p p p a h j j j j j j k l p p z x c v b n ",
"m M N B p p p V C Z A p p p S D F G G G G G H J K L p S 9 P I U ",
"Y T R z a E W Z F Q ! p p p S D ~ F F F F F F ^ / ( a p 7 ) _ o ",
"Y T R z K h ` G ' Q ! p p p S D ~ F C C ] C F F H f g K 7 ) _ o ",
"Y T [ { W Z C F ' Q ! p p p S D F } | |  .J F F F ^ } ..8 ) _ o ",
"Y T [ s X.o.] C o.Z O.! ! ! g +.F @.a z #.$.F F F F G %.8 ) _ o ",
"Y T [ s &.*.=.$.] ` Q } } } } -.' @.p p S ;.F F F F o.:.8 ) _ o ",
"Y T [ s &.-.O.h ` F ' ' ' ' ' o.G W A ! g >.F F F F o.:.8 ) _ o ",
"Y T [ s ,.] Z <.1.F F F F F F F F ,.Q Q 2.*.F F F F o.:.8 ) _ o ",
"Y T [ s ,.F o.G 3.4.4.5.F F F F F F ' ' ' F F C 6.C o.:.8 ) _ o ",
"Y 7.[ 8.,.F 1.9.0.q.w.e.r.F F F F F F F F F o.t.y.u.G i.6 ) _ o ",
"Y p.a.s.&.F 1.d.f.g.h.j.k.C ` ` ` ] F F F F ' l.K z.G x.c.v._ o ",
"m b.n.m.4.F 1.d.M.N.g.B.5.V.h h y.%.F F F F F C.Z Z.A.S.D.F.G.o ",
"H.J.K.L.P.F 1.I.U.M.Y.T.5.j p z #.+.F F F F F F o.F 1.R.h.E.H.o ",
"H.W.Q.!.P.F F 5.~.I.I.^.G j K p S ..F F F F F F F F 1./.(.).H.o ",
"H.W.Q.!.P._.`.4.A.1.1.1.' / '.].].[.F F F F F F F k.4.{.(.).H.o ",
"H.W.Q.!.}.^.|. X5.F F F F ` <.<..XXXF F F F F F 1.oXOX+X@X).H.o ",
"H.W.Q.!.#X$X%Xj.4.F F F F F o.o.o.k.}.}.}.5.F F 1.&XM.*X=X).H.o ",
"H.W.Q.!.P.k.9.-XF F F F F F F F 1.;XOXOX:X>XF F A.P.9.,X@X).H.o ",
"H.W.Q.!.P.A.1._.}.P.P.<XF F F F 1.1X@Xg.h.2XA.5.P.5.3X4X(.).H.o ",
"H.W.Q.!.P.F 1.5Xw.:XL.6X7XF F F 1.1X@X@X8X2X1.9X0XqXwXR.(.).H.o ",
"H.W.Q.!.P.F 1.d.f.g.eXj.k.F F F 1.rX+X+XtXyXwXuXM.>X3XR.(.).H.o ",
"o W.Q.!.}.1.1.iXM.@Xg.0.r.A.F F 1.4.^.^.^.P.1.<X^.#XwX4X@X).H.o ",
"pXaXsXdXfXgXgX;XM.@Xg.hXjXkXlXlXlXgXgXgXgXgXlXgXgXgXgXzXQ.xXpXcX",
"vXbXnXmXdXL.L.%XMX@X@Xf.L.L.L.L.L.L.L.L.L.L.L.L.L.L.NXBXVXCXvXZX",
"  AXSXaXDXFXFXFXQ.Q.Q.Q.FXFXFXFXFXFXFXFXFXFXFXFXFXFXQ.GXHXJX    ",
"  e AXKXaXVXJ.J.J.J.J.J.J.J.J.J.J.J.J.J.J.J.J.J.J.J.VXLXAXPX    ",
"      ZXIXo H.H.H.H.H.H.H.H.H.H.H.H.H.H.H.H.H.H.H.H.o UX        "
};
